<svg width="249.000000" height="73.000000" viewBox="0 0 249 73" fill="none" xmlns="http://www.w3.org/2000/svg" xmlns:xlink="http://www.w3.org/1999/xlink">
	<desc>
			Created with Pixso.
	</desc>
	<defs/>
	<path id="Vector" d="M0 0L73 0L73 73L0 73L0 0Z" fill="#0A0A0A" fill-opacity="1.000000" fill-rule="evenodd"/>
	<path id="Vector" d="M12.96 56.9L30.97 16.09L42.34 16.09L51.22 36.72L40.38 36.72L34.3 21.75L38.84 21.75L31.33 40.46L41.86 40.46L45.23 48.97L27.92 48.97L24.74 56.9L12.96 56.9Z" fill="#FEFEFE" fill-opacity="1.000000" fill-rule="nonzero"/>
	<path id="Vector" d="M58.2 52.71L60.03 56.9L48.38 56.9L46.72 52.71L58.2 52.71Z" fill="#E5097F" fill-opacity="1.000000" fill-rule="nonzero"/>
	<path id="Vector" d="M110.24 1.53L117.13 1.53L126.66 29.86L120.32 29.86L118.41 24.09L108.94 24.09L107.05 29.86L100.7 29.86L110.24 1.53ZM116.65 18.67L113.67 9.63L110.71 18.67L116.65 18.67ZM128.86 1.53L135.11 1.53L135.11 23.79L147.06 23.79L147.06 29.86L128.86 29.86L128.86 1.53ZM158.37 1.53L165.25 1.53L174.78 29.86L168.44 29.86L166.53 24.09L157.07 24.09L155.18 29.86L148.82 29.86L158.37 1.53ZM164.77 18.67L161.79 9.63L158.83 18.67L164.77 18.67ZM176.98 23.79L189.05 7.59L176.98 7.59L176.98 1.53L196.33 1.53L196.33 7.59L184.24 23.79L196.33 23.79L196.33 29.86L176.98 29.86L176.98 23.79ZM208.08 1.53L214.97 1.53L224.5 29.86L218.16 29.86L216.25 24.09L206.78 24.09L204.89 29.86L198.53 29.86L208.08 1.53ZM214.49 18.67L211.51 9.63L208.55 18.67L214.49 18.67ZM246.97 13.68C246.97 15.15 246.63 16.41 245.94 17.46C245.26 18.5 244.31 19.25 243.09 19.7L248.23 29.86L241.39 29.86L236.67 20.12L232.95 20.12L232.95 29.86L226.7 29.86L226.7 1.53L240.53 1.53C242.49 1.53 244.06 2.11 245.23 3.27C246.39 4.44 246.97 6.01 246.97 7.97L246.97 13.68ZM232.95 14.52L239.35 14.52C239.83 14.52 240.18 14.41 240.4 14.18C240.61 13.97 240.72 13.63 240.72 13.15L240.72 8.96C240.72 8.48 240.61 8.13 240.4 7.91C240.18 7.7 239.83 7.59 239.35 7.59L232.95 7.59L232.95 14.52ZM109.76 55.73C107.8 55.73 106.24 55.14 105.08 53.96C103.91 52.8 103.32 51.24 103.32 49.28L103.32 45.13C103.32 43.17 103.91 41.6 105.08 40.43C106.24 39.27 107.8 38.68 109.76 38.68L117.36 38.68C119.32 38.68 120.88 39.27 122.06 40.43C123.22 41.6 123.8 43.17 123.8 45.13L123.8 47.06L117.55 47.06L117.55 46.09C117.55 45.6 117.44 45.25 117.23 45.04C117.01 44.83 116.66 44.73 116.18 44.73L110.94 44.73C110.46 44.73 110.12 44.83 109.91 45.04C109.68 45.25 109.57 45.6 109.57 46.09L109.57 48.48C109.57 48.97 109.68 49.32 109.91 49.53C110.12 49.74 110.46 49.85 110.94 49.85L117.36 49.85C119.32 49.85 120.88 50.43 122.06 51.59C123.22 52.77 123.8 54.33 123.8 56.29L123.8 60.57C123.8 62.53 123.22 64.09 122.06 65.25C120.88 66.43 119.32 67.02 117.36 67.02L109.76 67.02C107.8 67.02 106.24 66.43 105.08 65.25C103.91 64.09 103.32 62.53 103.32 60.57L103.32 58.56L109.57 58.56L109.57 59.61C109.57 60.1 109.68 60.45 109.91 60.66C110.12 60.87 110.46 60.97 110.94 60.97L116.18 60.97C116.66 60.97 117.01 60.87 117.23 60.66C117.44 60.45 117.55 60.1 117.55 59.61L117.55 57.09C117.55 56.6 117.44 56.25 117.23 56.04C117.01 55.83 116.66 55.73 116.18 55.73L109.76 55.73ZM135.34 44.75L127.77 44.75L127.77 38.68L149.17 38.68L149.17 44.75L141.6 44.75L141.6 67.02L135.34 67.02L135.34 44.75ZM173.27 60.57C173.27 62.53 172.69 64.09 171.53 65.25C170.35 66.43 168.78 67.02 166.82 67.02L159.61 67.02C157.65 67.02 156.09 66.43 154.92 65.25C153.75 64.09 153.16 62.53 153.16 60.57L153.16 38.68L159.42 38.68L159.42 59.59C159.42 60.06 159.53 60.41 159.75 60.62C159.96 60.84 160.3 60.95 160.78 60.95L165.63 60.95C166.12 60.95 166.47 60.85 166.7 60.64C166.91 60.43 167.01 60.08 167.01 59.59L167.01 38.68L173.27 38.68L173.27 60.57ZM198.22 60.57C198.22 62.53 197.64 64.09 196.48 65.25C195.32 66.43 193.76 67.02 191.8 67.02L178.09 67.02L178.09 38.68L191.8 38.68C193.76 38.68 195.32 39.27 196.48 40.43C197.64 41.6 198.22 43.17 198.22 45.13L198.22 60.57ZM190.6 60.95C191.09 60.95 191.44 60.84 191.65 60.62C191.86 60.41 191.97 60.06 191.97 59.59L191.97 46.11C191.97 45.64 191.86 45.29 191.65 45.06C191.44 44.85 191.09 44.75 190.6 44.75L184.35 44.75L184.35 60.95L190.6 60.95ZM203.59 38.68L209.85 38.68L209.85 67.02L203.59 67.02L203.59 38.68ZM235.43 60.57C235.43 62.53 234.85 64.09 233.69 65.25C232.53 66.43 230.97 67.02 229.01 67.02L221.66 67.02C219.7 67.02 218.14 66.43 216.98 65.25C215.81 64.09 215.22 62.53 215.22 60.57L215.22 45.13C215.22 43.17 215.81 41.6 216.98 40.43C218.14 39.27 219.7 38.68 221.66 38.68L229.01 38.68C230.97 38.68 232.53 39.27 233.69 40.43C234.85 41.6 235.43 43.17 235.43 45.13L235.43 60.57ZM221.47 59.59C221.47 60.06 221.59 60.41 221.81 60.62C222.02 60.84 222.36 60.95 222.84 60.95L227.81 60.95C228.3 60.95 228.65 60.84 228.86 60.62C229.07 60.41 229.18 60.06 229.18 59.59L229.18 46.11C229.18 45.64 229.07 45.29 228.86 45.06C228.65 44.85 228.3 44.75 227.81 44.75L222.84 44.75C222.36 44.75 222.02 44.85 221.81 45.06C221.59 45.29 221.47 45.64 221.47 46.11L221.47 59.59Z" fill="#0A0A0A" fill-opacity="1.000000" fill-rule="nonzero"/>
</svg>
