<svg width="236.000000" height="66.000000" viewBox="0 0 236 66" fill="none" xmlns="http://www.w3.org/2000/svg" xmlns:xlink="http://www.w3.org/1999/xlink">
	<desc>
			Created with Pixso.
	</desc>
	<defs/>
	<path id="Vector" d="M-0.04 54.9L17.97 14.09L29.34 14.09L38.22 34.72L27.38 34.72L21.3 19.75L25.84 19.75L18.33 38.46L28.86 38.46L32.23 46.97L14.92 46.97L11.74 54.9L-0.04 54.9Z" fill="#FFFFFF" fill-opacity="1.000000" fill-rule="nonzero"/>
	<path id="Vector" d="M45.2 50.71L47.03 54.9L35.38 54.9L33.72 50.71L45.2 50.71Z" fill="#E5097F" fill-opacity="1.000000" fill-rule="nonzero"/>
	<path id="Vector" d="M97.24 -0.47L104.13 -0.47L113.66 27.86L107.32 27.86L105.41 22.09L95.94 22.09L94.05 27.86L87.69 27.86L97.24 -0.47ZM103.65 16.67L100.67 7.63L97.71 16.67L103.65 16.67ZM115.86 -0.47L122.11 -0.47L122.11 21.79L134.05 21.79L134.05 27.86L115.86 27.86L115.86 -0.47ZM145.37 -0.47L152.25 -0.47L161.78 27.86L155.44 27.86L153.53 22.09L144.07 22.09L142.18 27.86L135.82 27.86L145.37 -0.47ZM151.77 16.67L148.79 7.63L145.83 16.67L151.77 16.67ZM163.98 21.79L176.05 5.59L163.98 5.59L163.98 -0.47L183.33 -0.47L183.33 5.59L171.24 21.79L183.33 21.79L183.33 27.86L163.98 27.86L163.98 21.79ZM195.08 -0.47L201.97 -0.47L211.5 27.86L205.16 27.86L203.25 22.09L193.78 22.09L191.89 27.86L185.53 27.86L195.08 -0.47ZM201.48 16.67L198.51 7.63L195.55 16.67L201.48 16.67ZM233.97 11.68C233.97 13.15 233.63 14.41 232.94 15.46C232.26 16.5 231.31 17.25 230.09 17.7L235.23 27.86L228.39 27.86L223.67 18.12L219.95 18.12L219.95 27.86L213.7 27.86L213.7 -0.47L227.53 -0.47C229.49 -0.47 231.05 0.11 232.23 1.27C233.39 2.44 233.97 4.01 233.97 5.97L233.97 11.68ZM219.95 12.52L226.35 12.52C226.83 12.52 227.18 12.41 227.4 12.18C227.61 11.97 227.72 11.63 227.72 11.15L227.72 6.96C227.72 6.48 227.61 6.13 227.4 5.91C227.18 5.7 226.83 5.59 226.35 5.59L219.95 5.59L219.95 12.52ZM96.76 53.73C94.8 53.73 93.24 53.14 92.08 51.96C90.91 50.8 90.32 49.24 90.32 47.28L90.32 43.13C90.32 41.17 90.91 39.6 92.08 38.43C93.24 37.27 94.8 36.68 96.76 36.68L104.36 36.68C106.32 36.68 107.88 37.27 109.06 38.43C110.22 39.6 110.8 41.17 110.8 43.13L110.8 45.06L104.55 45.06L104.55 44.09C104.55 43.6 104.44 43.25 104.23 43.04C104.01 42.83 103.66 42.73 103.18 42.73L97.94 42.73C97.46 42.73 97.12 42.83 96.91 43.04C96.68 43.25 96.57 43.6 96.57 44.09L96.57 46.48C96.57 46.97 96.68 47.32 96.91 47.53C97.12 47.74 97.46 47.85 97.94 47.85L104.36 47.85C106.32 47.85 107.88 48.43 109.06 49.59C110.22 50.77 110.8 52.33 110.8 54.29L110.8 58.57C110.8 60.53 110.22 62.09 109.06 63.25C107.88 64.43 106.32 65.02 104.36 65.02L96.76 65.02C94.8 65.02 93.24 64.43 92.08 63.25C90.91 62.09 90.32 60.53 90.32 58.57L90.32 56.56L96.57 56.56L96.57 57.61C96.57 58.1 96.68 58.45 96.91 58.66C97.12 58.87 97.46 58.97 97.94 58.97L103.18 58.97C103.66 58.97 104.01 58.87 104.23 58.66C104.44 58.45 104.55 58.1 104.55 57.61L104.55 55.09C104.55 54.6 104.44 54.25 104.23 54.04C104.01 53.83 103.66 53.73 103.18 53.73L96.76 53.73ZM122.34 42.75L114.77 42.75L114.77 36.68L136.17 36.68L136.17 42.75L128.6 42.75L128.6 65.02L122.34 65.02L122.34 42.75ZM160.27 58.57C160.27 60.53 159.69 62.09 158.53 63.25C157.35 64.43 155.78 65.02 153.82 65.02L146.61 65.02C144.65 65.02 143.09 64.43 141.92 63.25C140.75 62.09 140.16 60.53 140.16 58.57L140.16 36.68L146.42 36.68L146.42 57.59C146.42 58.06 146.53 58.41 146.75 58.62C146.96 58.84 147.3 58.95 147.78 58.95L152.63 58.95C153.12 58.95 153.47 58.85 153.7 58.64C153.91 58.43 154.01 58.08 154.01 57.59L154.01 36.68L160.27 36.68L160.27 58.57ZM185.22 58.57C185.22 60.53 184.64 62.09 183.48 63.25C182.32 64.43 180.76 65.02 178.8 65.02L165.09 65.02L165.09 36.68L178.8 36.68C180.76 36.68 182.32 37.27 183.48 38.43C184.64 39.6 185.22 41.17 185.22 43.13L185.22 58.57ZM177.6 58.95C178.09 58.95 178.44 58.84 178.65 58.62C178.86 58.41 178.97 58.06 178.97 57.59L178.97 44.11C178.97 43.64 178.86 43.29 178.65 43.06C178.44 42.85 178.09 42.75 177.6 42.75L171.35 42.75L171.35 58.95L177.6 58.95ZM190.59 36.68L196.85 36.68L196.85 65.02L190.59 65.02L190.59 36.68ZM222.43 58.57C222.43 60.53 221.85 62.09 220.69 63.25C219.53 64.43 217.97 65.02 216.01 65.02L208.66 65.02C206.7 65.02 205.14 64.43 203.98 63.25C202.81 62.09 202.22 60.53 202.22 58.57L202.22 43.13C202.22 41.17 202.81 39.6 203.98 38.43C205.14 37.27 206.7 36.68 208.66 36.68L216.01 36.68C217.97 36.68 219.53 37.27 220.69 38.43C221.85 39.6 222.43 41.17 222.43 43.13L222.43 58.57ZM208.47 57.59C208.47 58.06 208.59 58.41 208.81 58.62C209.02 58.84 209.36 58.95 209.84 58.95L214.81 58.95C215.3 58.95 215.65 58.84 215.86 58.62C216.07 58.41 216.18 58.06 216.18 57.59L216.18 44.11C216.18 43.64 216.07 43.29 215.86 43.06C215.65 42.85 215.3 42.75 214.81 42.75L209.84 42.75C209.36 42.75 209.02 42.85 208.81 43.06C208.59 43.29 208.47 43.64 208.47 44.11L208.47 57.59Z" fill="#FFFFFF" fill-opacity="1.000000" fill-rule="nonzero"/>
</svg>